<?xml version="1.0" encoding="UTF-8"?>
<!-- Generator: Adobe Illustrator 16.0.0, SVG Export Plug-In . SVG Version: 6.00 Build 0)  -->
<!DOCTYPE svg PUBLIC "-//W3C//DTD SVG 1.1//EN" "http://www.w3.org/Graphics/SVG/1.1/DTD/svg11.dtd">
<svg version="1.1" id="Layer_1" xmlns:sketch="http://www.bohemiancoding.com/sketch/ns" xmlns="http://www.w3.org/2000/svg" xmlns:xlink="http://www.w3.org/1999/xlink" x="0px" y="0px" width="95.486px" height="35px" viewBox="0 0 95.486 35" enable-background="new 0 0 95.486 35" xml:space="preserve">
<title>WaveLogo</title>
<desc>Created with Sketch.</desc>
<path id="WAVE" sketch:type="MSShapeGroup" d="M46.232,28h-3.424L39.736,5.6h2.432l2.624,19.072l2.496-19.04h2.464l2.464,19.072  L54.744,5.6h2.176L53.88,28h-3.296L48.44,12.8L46.232,28z M61.464,23.488L60.6,28h-2.304l4.288-22.4H66.2L70.488,28h-2.496  l-0.864-4.512H61.464z M61.784,21.344h4.992L64.248,8.416L61.784,21.344z M74.328,5.6l3.648,19.488L81.592,5.6h2.304L79.704,28  h-3.68L71.8,5.6H74.328z M93.784,15.52v2.24h-5.472v7.969h6.72V28h-9.216V5.6h9.216v2.272h-6.72v7.648H93.784z"/>
<path d="M16.803,18.812c-0.111,0-0.271,0.002-0.389,0.006c-2.752,0.088-5.416,0.582-7.92,1.772c-1.462,0.694-2.785,1.587-3.79,2.884  c-1.706,2.203-1.63,4.773,0.194,6.889c1.274,1.476,2.906,2.419,4.695,3.113c2.205,0.855,4.504,1.23,6.861,1.301  c0.111,0.004,0.203,0,0.316,0.005l-0.002,0.2c-0.246,0-0.49,0.002-0.735-0.006c-2.918-0.099-5.758-0.598-8.47-1.709  c-2.051-0.841-3.923-1.963-5.424-3.623c-1.382-1.531-2.224-3.293-2.131-5.401c0.082-1.865,0.89-3.433,2.124-4.79  c1.692-1.863,3.82-3.052,6.152-3.909c2.596-0.954,5.289-1.379,8.046-1.436c0.147-0.003,0.32,0,0.468-0.003L16.803,18.812z"/>
<path d="M12.119,9.393C12.119,4.274,16.294,0,21.466,0v4.671c-1.163,0-2.361,0.455-3.274,1.373  c-0.762,0.768-1.395,1.908-1.395,3.347L12.119,9.393z"/>
<rect x="16.797" y="9.391" width="4.653" height="4.714"/>
</svg>